<svg width="14" height="17" viewBox="0 0 14 17" fill="none" xmlns="http://www.w3.org/2000/svg">
<path d="M6.24825 1.15377C6.02366 1.49046 6.11461 1.9454 6.4513 2.16985L6.48397 2.19163C2.86419 2.45667 0 5.48625 0 9.17251C4.88453e-05 13.0323 3.14022 16.1725 7.00002 16.1725C10.8598 16.1725 14 13.0323 14 9.17251C14 8.63296 13.5626 8.1956 13.0231 8.1956C12.4835 8.1956 12.0462 8.63296 12.0462 9.17251C12.0461 11.955 9.78245 14.2187 7.00002 14.2187C4.2176 14.2187 1.95386 11.955 1.95386 9.17251C1.95386 6.59357 3.89864 4.46064 6.39859 4.16239C6.10596 4.39749 6.03606 4.82112 6.24825 5.1393C6.47274 5.47599 6.92768 5.56689 7.26433 5.3424L9.43995 3.8916C9.69668 3.72039 9.84995 3.44183 9.84995 3.14646C9.84995 2.85109 9.69663 2.57258 9.43995 2.40147L7.26433 0.950668C6.92764 0.726224 6.47274 0.817124 6.24825 1.15377Z" fill="#5DCAE2"/>
</svg>
